<mxfile host="app.diagrams.net" modified="2020-12-07T09:26:22.955Z" agent="5.0 (Windows)" etag="XLAzbLQE_3-o-f2CB-yK" version="13.10.9" type="github">
  <diagram id="ZK0FdDX8pJwc6BLGZyAG" name="Page-1">
    <mxGraphModel dx="1038" dy="547" grid="1" gridSize="10" guides="1" tooltips="1" connect="1" arrows="1" fold="1" page="1" pageScale="1" pageWidth="1169" pageHeight="827" math="0" shadow="0">
      <root>
        <mxCell id="0" />
        <mxCell id="1" parent="0" />
        <mxCell id="K3avq_iCL7ub8KMuUIM4-1" value="RECEIPT OF GOODS, SERVICES &amp; WORKS" style="swimlane;" vertex="1" parent="1">
          <mxGeometry x="10" y="10" width="1150" height="280" as="geometry" />
        </mxCell>
      </root>
    </mxGraphModel>
  </diagram>
</mxfile>
